<svg width="20" height="14" viewBox="0 0 20 14" fill="none" xmlns="http://www.w3.org/2000/svg">
<rect width="20" height="14" rx="2" fill="white"/>
<mask id="mask0_736_2485" style="mask-type:luminance" maskUnits="userSpaceOnUse" x="0" y="0" width="20" height="14">
<rect width="20" height="14" rx="2" fill="white"/>
</mask>
<g mask="url(#mask0_736_2485)">
<path fill-rule="evenodd" clip-rule="evenodd" d="M20 0H0V0.933333H20V0ZM20 1.86673H0V2.80006H20V1.86673ZM0 3.73329H20V4.66662H0V3.73329ZM20 5.60002H0V6.53335H20V5.60002ZM0 7.46674H20V8.40008H0V7.46674ZM20 9.33326H0V10.2666H20V9.33326ZM0 11.2H20V12.1333H0V11.2ZM20 13.0667H0V14.0001H20V13.0667Z" fill="#D02F44"/>
<rect width="8.57143" height="6.53333" fill="#46467F"/>
<g filter="url(#filter0_d_736_2485)">
<path fill-rule="evenodd" clip-rule="evenodd" d="M1.90477 1.39977C1.90477 1.6575 1.69158 1.86644 1.42858 1.86644C1.16559 1.86644 0.952393 1.6575 0.952393 1.39977C0.952393 1.14204 1.16559 0.933105 1.42858 0.933105C1.69158 0.933105 1.90477 1.14204 1.90477 1.39977ZM3.80954 1.39977C3.80954 1.6575 3.59634 1.86644 3.33335 1.86644C3.07036 1.86644 2.85716 1.6575 2.85716 1.39977C2.85716 1.14204 3.07036 0.933105 3.33335 0.933105C3.59634 0.933105 3.80954 1.14204 3.80954 1.39977ZM5.2381 1.86644C5.5011 1.86644 5.71429 1.6575 5.71429 1.39977C5.71429 1.14204 5.5011 0.933105 5.2381 0.933105C4.97511 0.933105 4.76191 1.14204 4.76191 1.39977C4.76191 1.6575 4.97511 1.86644 5.2381 1.86644ZM7.61906 1.39977C7.61906 1.6575 7.40586 1.86644 7.14287 1.86644C6.87988 1.86644 6.66668 1.6575 6.66668 1.39977C6.66668 1.14204 6.87988 0.933105 7.14287 0.933105C7.40586 0.933105 7.61906 1.14204 7.61906 1.39977ZM2.38096 2.79972C2.64395 2.79972 2.85715 2.59078 2.85715 2.33305C2.85715 2.07532 2.64395 1.86638 2.38096 1.86638C2.11797 1.86638 1.90477 2.07532 1.90477 2.33305C1.90477 2.59078 2.11797 2.79972 2.38096 2.79972ZM4.76192 2.33305C4.76192 2.59078 4.54872 2.79972 4.28573 2.79972C4.02273 2.79972 3.80954 2.59078 3.80954 2.33305C3.80954 2.07532 4.02273 1.86638 4.28573 1.86638C4.54872 1.86638 4.76192 2.07532 4.76192 2.33305ZM6.19049 2.79972C6.45348 2.79972 6.66668 2.59078 6.66668 2.33305C6.66668 2.07532 6.45348 1.86638 6.19049 1.86638C5.9275 1.86638 5.7143 2.07532 5.7143 2.33305C5.7143 2.59078 5.9275 2.79972 6.19049 2.79972ZM7.61906 3.2665C7.61906 3.52423 7.40586 3.73317 7.14287 3.73317C6.87988 3.73317 6.66668 3.52423 6.66668 3.2665C6.66668 3.00877 6.87988 2.79983 7.14287 2.79983C7.40586 2.79983 7.61906 3.00877 7.61906 3.2665ZM5.2381 3.73317C5.5011 3.73317 5.71429 3.52423 5.71429 3.2665C5.71429 3.00877 5.5011 2.79983 5.2381 2.79983C4.97511 2.79983 4.76191 3.00877 4.76191 3.2665C4.76191 3.52423 4.97511 3.73317 5.2381 3.73317ZM3.80954 3.2665C3.80954 3.52423 3.59634 3.73317 3.33335 3.73317C3.07036 3.73317 2.85716 3.52423 2.85716 3.2665C2.85716 3.00877 3.07036 2.79983 3.33335 2.79983C3.59634 2.79983 3.80954 3.00877 3.80954 3.2665ZM1.42858 3.73317C1.69158 3.73317 1.90477 3.52423 1.90477 3.2665C1.90477 3.00877 1.69158 2.79983 1.42858 2.79983C1.16559 2.79983 0.952393 3.00877 0.952393 3.2665C0.952393 3.52423 1.16559 3.73317 1.42858 3.73317ZM2.85715 4.19978C2.85715 4.45751 2.64395 4.66645 2.38096 4.66645C2.11797 4.66645 1.90477 4.45751 1.90477 4.19978C1.90477 3.94205 2.11797 3.73311 2.38096 3.73311C2.64395 3.73311 2.85715 3.94205 2.85715 4.19978ZM4.28573 4.66645C4.54872 4.66645 4.76192 4.45751 4.76192 4.19978C4.76192 3.94205 4.54872 3.73311 4.28573 3.73311C4.02273 3.73311 3.80954 3.94205 3.80954 4.19978C3.80954 4.45751 4.02273 4.66645 4.28573 4.66645ZM6.66668 4.19978C6.66668 4.45751 6.45348 4.66645 6.19049 4.66645C5.9275 4.66645 5.7143 4.45751 5.7143 4.19978C5.7143 3.94205 5.9275 3.73311 6.19049 3.73311C6.45348 3.73311 6.66668 3.94205 6.66668 4.19978ZM7.14287 5.59973C7.40586 5.59973 7.61906 5.39079 7.61906 5.13306C7.61906 4.87533 7.40586 4.66639 7.14287 4.66639C6.87988 4.66639 6.66668 4.87533 6.66668 5.13306C6.66668 5.39079 6.87988 5.59973 7.14287 5.59973ZM5.71429 5.13306C5.71429 5.39079 5.5011 5.59973 5.2381 5.59973C4.97511 5.59973 4.76191 5.39079 4.76191 5.13306C4.76191 4.87533 4.97511 4.66639 5.2381 4.66639C5.5011 4.66639 5.71429 4.87533 5.71429 5.13306ZM3.33335 5.59973C3.59634 5.59973 3.80954 5.39079 3.80954 5.13306C3.80954 4.87533 3.59634 4.66639 3.33335 4.66639C3.07036 4.66639 2.85716 4.87533 2.85716 5.13306C2.85716 5.39079 3.07036 5.59973 3.33335 5.59973ZM1.90477 5.13306C1.90477 5.39079 1.69158 5.59973 1.42858 5.59973C1.16559 5.59973 0.952393 5.39079 0.952393 5.13306C0.952393 4.87533 1.16559 4.66639 1.42858 4.66639C1.69158 4.66639 1.90477 4.87533 1.90477 5.13306Z" fill="url(#paint0_linear_736_2485)"/>
</g>
</g>
<defs>
<filter id="filter0_d_736_2485" x="0.952393" y="0.933105" width="6.66663" height="5.6665" filterUnits="userSpaceOnUse" color-interpolation-filters="sRGB">
<feFlood flood-opacity="0" result="BackgroundImageFix"/>
<feColorMatrix in="SourceAlpha" type="matrix" values="0 0 0 0 0 0 0 0 0 0 0 0 0 0 0 0 0 0 127 0" result="hardAlpha"/>
<feOffset dy="1"/>
<feColorMatrix type="matrix" values="0 0 0 0 0 0 0 0 0 0 0 0 0 0 0 0 0 0 0.06 0"/>
<feBlend mode="normal" in2="BackgroundImageFix" result="effect1_dropShadow_736_2485"/>
<feBlend mode="normal" in="SourceGraphic" in2="effect1_dropShadow_736_2485" result="shape"/>
</filter>
<linearGradient id="paint0_linear_736_2485" x1="0.952393" y1="0.933105" x2="0.952393" y2="5.59977" gradientUnits="userSpaceOnUse">
<stop stop-color="white"/>
<stop offset="1" stop-color="#F0F0F0"/>
</linearGradient>
</defs>
</svg>
